<mxfile host="app.diagrams.net" modified="2021-04-07T15:51:07.426Z" agent="5.0 (X11; Linux x86_64) AppleWebKit/537.36 (KHTML, like Gecko) Chrome/89.0.4389.114 Safari/537.36" etag="QqBN9w2QfvhyIcZPzW0O" version="14.5.8" type="github">
  <diagram id="TfbwxsZt4qDVLz9tyszb" name="Page-1">
    <mxGraphModel dx="1673" dy="860" grid="1" gridSize="10" guides="1" tooltips="1" connect="1" arrows="1" fold="1" page="1" pageScale="1" pageWidth="827" pageHeight="1169" background="#182E3E" math="0" shadow="0">
      <root>
        <mxCell id="0" />
        <mxCell id="1" parent="0" />
        <mxCell id="P25z9YGpwv14QDxZO4XR-2" value="app.js" style="shape=umlBoundary;whiteSpace=wrap;html=1;fillColor=#EEEEEE;strokeColor=#FFFFFF;fontColor=#1A1A1A;" vertex="1" parent="1">
          <mxGeometry x="380" y="80" width="100" height="80" as="geometry" />
        </mxCell>
        <mxCell id="P25z9YGpwv14QDxZO4XR-3" value="Entity Object" style="ellipse;shape=umlEntity;whiteSpace=wrap;html=1;fillColor=#EEEEEE;strokeColor=#FFFFFF;fontColor=#1A1A1A;" vertex="1" parent="1">
          <mxGeometry x="650" y="10" width="80" height="80" as="geometry" />
        </mxCell>
        <mxCell id="P25z9YGpwv14QDxZO4XR-4" value="Control Object" style="ellipse;shape=umlControl;whiteSpace=wrap;html=1;fillColor=#EEEEEE;strokeColor=#FFFFFF;fontColor=#1A1A1A;" vertex="1" parent="1">
          <mxGeometry x="750" width="70" height="80" as="geometry" />
        </mxCell>
        <mxCell id="P25z9YGpwv14QDxZO4XR-5" value="users.js" style="shape=umlBoundary;whiteSpace=wrap;html=1;fillColor=#EEEEEE;strokeColor=#FFFFFF;fontColor=#1A1A1A;" vertex="1" parent="1">
          <mxGeometry x="60" y="400" width="100" height="80" as="geometry" />
        </mxCell>
        <mxCell id="P25z9YGpwv14QDxZO4XR-6" value="poi.js" style="shape=umlBoundary;whiteSpace=wrap;html=1;fillColor=#EEEEEE;strokeColor=#FFFFFF;fontColor=#1A1A1A;" vertex="1" parent="1">
          <mxGeometry x="690" y="240" width="100" height="80" as="geometry" />
        </mxCell>
        <mxCell id="P25z9YGpwv14QDxZO4XR-10" value="Model" style="rounded=0;whiteSpace=wrap;html=1;fillColor=#EEEEEE;strokeColor=#FFFFFF;fontColor=#1A1A1A;" vertex="1" parent="1">
          <mxGeometry x="50" y="330" width="120" height="60" as="geometry" />
        </mxCell>
        <mxCell id="P25z9YGpwv14QDxZO4XR-11" value="Controller" style="rounded=0;whiteSpace=wrap;html=1;fillColor=#EEEEEE;strokeColor=#FFFFFF;fontColor=#1A1A1A;" vertex="1" parent="1">
          <mxGeometry x="680" y="170" width="120" height="60" as="geometry" />
        </mxCell>
        <mxCell id="P25z9YGpwv14QDxZO4XR-13" value="Ajax" style="rounded=0;whiteSpace=wrap;html=1;fillColor=#EEEEEE;strokeColor=#FFFFFF;fontColor=#1A1A1A;" vertex="1" parent="1">
          <mxGeometry x="620" y="620" width="120" height="60" as="geometry" />
        </mxCell>
        <mxCell id="P25z9YGpwv14QDxZO4XR-14" value="Views" style="rounded=0;whiteSpace=wrap;html=1;fillColor=#EEEEEE;strokeColor=#FFFFFF;fontColor=#1A1A1A;" vertex="1" parent="1">
          <mxGeometry x="240" y="710" width="120" height="60" as="geometry" />
        </mxCell>
        <mxCell id="P25z9YGpwv14QDxZO4XR-15" value="Operation Controller" style="rounded=0;whiteSpace=wrap;html=1;fillColor=#EEEEEE;strokeColor=#FFFFFF;fontColor=#1A1A1A;" vertex="1" parent="1">
          <mxGeometry x="370" y="10" width="120" height="60" as="geometry" />
        </mxCell>
        <mxCell id="P25z9YGpwv14QDxZO4XR-17" value="dataRouter.js" style="shape=umlBoundary;whiteSpace=wrap;html=1;fillColor=#EEEEEE;strokeColor=#FFFFFF;fontColor=#1A1A1A;" vertex="1" parent="1">
          <mxGeometry x="60" y="500" width="100" height="80" as="geometry" />
        </mxCell>
        <mxCell id="P25z9YGpwv14QDxZO4XR-18" value="conn.js" style="shape=umlBoundary;whiteSpace=wrap;html=1;fillColor=#EEEEEE;strokeColor=#FFFFFF;fontColor=#1A1A1A;" vertex="1" parent="1">
          <mxGeometry x="60" y="600" width="100" height="80" as="geometry" />
        </mxCell>
        <mxCell id="P25z9YGpwv14QDxZO4XR-19" value="users.js" style="shape=umlBoundary;whiteSpace=wrap;html=1;fillColor=#EEEEEE;strokeColor=#FFFFFF;fontColor=#1A1A1A;" vertex="1" parent="1">
          <mxGeometry x="690" y="330" width="100" height="80" as="geometry" />
        </mxCell>
        <mxCell id="P25z9YGpwv14QDxZO4XR-20" value="searchPoi" style="shape=umlBoundary;whiteSpace=wrap;html=1;fillColor=#EEEEEE;strokeColor=#FFFFFF;fontColor=#1A1A1A;" vertex="1" parent="1">
          <mxGeometry x="630" y="700" width="100" height="80" as="geometry" />
        </mxCell>
        <mxCell id="P25z9YGpwv14QDxZO4XR-21" value="addRecommendation" style="shape=umlBoundary;whiteSpace=wrap;html=1;fillColor=#EEEEEE;strokeColor=#FFFFFF;fontColor=#1A1A1A;" vertex="1" parent="1">
          <mxGeometry x="630" y="790" width="100" height="80" as="geometry" />
        </mxCell>
        <mxCell id="P25z9YGpwv14QDxZO4XR-22" value="index.ejs" style="shape=umlBoundary;whiteSpace=wrap;html=1;fillColor=#EEEEEE;strokeColor=#FFFFFF;fontColor=#1A1A1A;" vertex="1" parent="1">
          <mxGeometry x="250" y="790" width="100" height="80" as="geometry" />
        </mxCell>
        <mxCell id="P25z9YGpwv14QDxZO4XR-23" value="page.ejs" style="shape=umlBoundary;whiteSpace=wrap;html=1;fillColor=#EEEEEE;strokeColor=#FFFFFF;fontColor=#1A1A1A;" vertex="1" parent="1">
          <mxGeometry x="250" y="890" width="100" height="80" as="geometry" />
        </mxCell>
        <mxCell id="P25z9YGpwv14QDxZO4XR-24" value="" style="endArrow=classic;html=1;strokeColor=#FFFFFF;fontColor=#FFFFFF;exitX=-0.012;exitY=0.515;exitDx=0;exitDy=0;exitPerimeter=0;entryX=0.5;entryY=0;entryDx=0;entryDy=0;" edge="1" parent="1" source="P25z9YGpwv14QDxZO4XR-2" target="P25z9YGpwv14QDxZO4XR-10">
          <mxGeometry width="50" height="50" relative="1" as="geometry">
            <mxPoint x="389" y="280" as="sourcePoint" />
            <mxPoint x="439" y="230" as="targetPoint" />
            <Array as="points">
              <mxPoint x="110" y="121" />
            </Array>
          </mxGeometry>
        </mxCell>
        <mxCell id="P25z9YGpwv14QDxZO4XR-25" value="" style="endArrow=classic;html=1;strokeColor=#FFFFFF;fontColor=#FFFFFF;exitX=0.999;exitY=0.5;exitDx=0;exitDy=0;exitPerimeter=0;entryX=-0.006;entryY=0.522;entryDx=0;entryDy=0;entryPerimeter=0;" edge="1" parent="1" source="P25z9YGpwv14QDxZO4XR-5" target="P25z9YGpwv14QDxZO4XR-19">
          <mxGeometry width="50" height="50" relative="1" as="geometry">
            <mxPoint x="350" y="440" as="sourcePoint" />
            <mxPoint x="400" y="390" as="targetPoint" />
            <Array as="points">
              <mxPoint x="320" y="440" />
              <mxPoint x="320" y="372" />
            </Array>
          </mxGeometry>
        </mxCell>
        <mxCell id="P25z9YGpwv14QDxZO4XR-26" value="" style="endArrow=classic;html=1;strokeColor=#FFFFFF;fontColor=#FFFFFF;exitX=1.023;exitY=0.515;exitDx=0;exitDy=0;exitPerimeter=0;entryX=-0.042;entryY=0.544;entryDx=0;entryDy=0;entryPerimeter=0;" edge="1" parent="1" source="P25z9YGpwv14QDxZO4XR-17" target="P25z9YGpwv14QDxZO4XR-6">
          <mxGeometry width="50" height="50" relative="1" as="geometry">
            <mxPoint x="350" y="440" as="sourcePoint" />
            <mxPoint x="400" y="390" as="targetPoint" />
            <Array as="points">
              <mxPoint x="220" y="541" />
              <mxPoint x="220" y="284" />
            </Array>
          </mxGeometry>
        </mxCell>
        <mxCell id="P25z9YGpwv14QDxZO4XR-27" value="" style="endArrow=classic;html=1;strokeColor=#FFFFFF;fontColor=#FFFFFF;exitX=1.017;exitY=0.529;exitDx=0;exitDy=0;exitPerimeter=0;entryX=1.029;entryY=0.618;entryDx=0;entryDy=0;entryPerimeter=0;" edge="1" parent="1" source="P25z9YGpwv14QDxZO4XR-20" target="P25z9YGpwv14QDxZO4XR-6">
          <mxGeometry width="50" height="50" relative="1" as="geometry">
            <mxPoint x="350" y="630" as="sourcePoint" />
            <mxPoint x="400" y="580" as="targetPoint" />
            <Array as="points">
              <mxPoint x="820" y="742" />
              <mxPoint x="820" y="289" />
            </Array>
          </mxGeometry>
        </mxCell>
        <mxCell id="P25z9YGpwv14QDxZO4XR-28" value="" style="endArrow=classic;html=1;strokeColor=#FFFFFF;fontColor=#FFFFFF;exitX=1.029;exitY=0.522;exitDx=0;exitDy=0;exitPerimeter=0;entryX=1.041;entryY=0.5;entryDx=0;entryDy=0;entryPerimeter=0;" edge="1" parent="1" source="P25z9YGpwv14QDxZO4XR-21" target="P25z9YGpwv14QDxZO4XR-6">
          <mxGeometry width="50" height="50" relative="1" as="geometry">
            <mxPoint x="350" y="630" as="sourcePoint" />
            <mxPoint x="400" y="580" as="targetPoint" />
            <Array as="points">
              <mxPoint x="870" y="832" />
              <mxPoint x="870" y="820" />
              <mxPoint x="870" y="280" />
            </Array>
          </mxGeometry>
        </mxCell>
        <mxCell id="P25z9YGpwv14QDxZO4XR-29" value="" style="endArrow=classic;html=1;strokeColor=#FFFFFF;fontColor=#FFFFFF;exitX=1.029;exitY=0.478;exitDx=0;exitDy=0;exitPerimeter=0;entryX=0.599;entryY=1;entryDx=0;entryDy=0;entryPerimeter=0;" edge="1" parent="1" source="P25z9YGpwv14QDxZO4XR-22" target="P25z9YGpwv14QDxZO4XR-2">
          <mxGeometry width="50" height="50" relative="1" as="geometry">
            <mxPoint x="350" y="630" as="sourcePoint" />
            <mxPoint x="400" y="580" as="targetPoint" />
            <Array as="points">
              <mxPoint x="440" y="828" />
            </Array>
          </mxGeometry>
        </mxCell>
      </root>
    </mxGraphModel>
  </diagram>
</mxfile>
